PathFileType	4	(X/Y/Z)	D:\TRACE\spotREDO_2-26-24\spot_justBody_Motion_2_8-platform.trc
DataRate	CameraRate	NumFrames	NumMarkers	Units	OrigDataRate	OrigDataStartFrame	OrigNumFrames
100.00	100.00	      63	5	mm	100.00	1	      7000
Frame#	Time	Left_Front			Right_Front			Left_Aft			Right_Aft			Post			
		X1	Y1	Z1	X2	Y2	Z2	X3	Y3	Z3	X4	Y4	Z4	X5	Y5	Z5	

1	0.000	-696.97321	-3.83152	-575.57550	718.02563	5.15299	-491.27203	-768.25806	4.70175	642.97278	801.95001	11.90076	646.88025	12.46035	623.43488	-982.42938	
2	0.010	-696.96973	-3.81751	-575.60107	718.04956	5.25060	-491.17697	-768.20563	4.60289	642.96893	801.92645	11.87399	646.89868	12.39617	623.41327	-982.66913	
3	0.020	-696.96991	-3.80741	-575.58032	718.06097	5.21496	-491.26563	-768.16235	4.56676	642.98309	802.00244	11.68120	646.91602	12.43968	623.39038	-982.76813	
4	0.030	-696.94788	-3.81060	-575.60168	717.99048	5.12589	-491.30383	-768.20691	4.55939	643.03650	802.05450	11.38661	646.76331	12.35311	623.32886	-982.91943	
5	0.040	-696.96771	-3.84324	-575.60706	717.97919	4.95715	-491.22775	-768.14514	4.54822	642.96533	802.02441	11.58485	646.89490	12.41064	623.27673	-982.99219	
6	0.050	-696.95642	-3.82250	-575.60168	717.96198	5.12591	-491.29947	-768.15961	4.62697	643.07104	801.96295	11.73901	646.92529	12.31703	623.30914	-982.95306	
7	0.060	-696.96680	-3.79585	-575.59729	718.04706	5.22784	-491.19644	-768.07617	4.69639	643.06641	801.99762	11.81969	646.88568	12.43037	623.38226	-982.77472	
8	0.070	-696.97760	-3.75465	-575.55560	718.10046	5.26855	-491.13358	-768.20612	4.64780	642.93719	801.97351	11.80130	646.89825	12.41864	623.39056	-982.66394	
9	0.080	-696.94397	-3.84557	-575.61609	718.01251	5.14613	-491.28897	-768.16852	4.73367	642.96667	801.97339	11.73084	646.89966	12.52309	623.35303	-982.43176	
10	0.090	-696.95654	-3.86017	-575.62982	718.01813	5.07408	-491.29379	-768.20764	4.63379	642.95929	802.03711	11.75891	646.87354	12.57999	623.33527	-982.25122	
11	0.100	-696.92908	-3.84582	-575.59637	717.99475	5.10451	-491.25015	-768.17920	4.68862	642.98639	801.99359	11.78155	646.88739	12.43025	623.34576	-982.20111	
12	0.110	-696.94110	-3.84071	-575.60852	717.97815	5.10887	-491.25845	-768.11255	4.69330	642.93420	801.99176	11.78066	646.89807	12.41208	623.43060	-982.23840	
13	0.120	-696.97559	-3.78552	-575.55896	718.02209	5.26737	-491.21289	-768.22870	4.60232	642.95776	801.90173	11.79534	646.91589	12.39712	623.46106	-982.33917	
14	0.130	-696.96039	-3.77117	-575.60297	718.03436	5.21866	-491.18054	-768.14355	4.70973	643.03320	801.96954	11.71304	646.92999	12.53864	623.40839	-982.46527	
15	0.140	-696.96393	-3.81313	-575.61243	717.97357	5.15088	-491.20340	-768.15295	4.64981	643.00146	801.91125	11.66836	646.91248	12.48174	623.40424	-982.59412	
16	0.150	-696.95605	-3.80041	-575.59991	717.98450	5.06525	-491.25259	-768.19952	4.62436	643.04114	801.96857	11.70736	646.89795	12.36005	623.34955	-982.79376	
17	0.160	-696.91577	-3.80141	-575.59155	717.94476	5.03426	-491.26556	-768.14886	4.63530	643.00055	801.97119	11.75847	646.92981	12.39288	623.35901	-982.77222	
18	0.170	-696.98096	-3.79124	-575.58447	718.00446	5.18922	-491.30234	-768.12146	4.67540	643.02008	801.91278	11.76178	646.92041	11.64275	623.46411	-982.77753	
19	0.180	-696.93872	-3.81115	-575.60638	718.00250	5.23911	-491.21573	-768.23376	4.67016	642.86511	801.91357	11.76362	646.90656	12.15130	623.46130	-982.71191	
20	0.190	-696.97870	-3.80845	-575.58429	718.00861	5.19155	-491.21945	-768.14325	4.73120	642.95667	801.97589	11.78530	646.89447	12.51561	623.29309	-982.64240	
21	0.200	-696.97943	-3.83874	-575.60742	717.99823	5.11167	-491.26416	-768.20862	4.74995	642.96460	801.99988	11.76537	646.89423	12.66897	623.30988	-982.70221	
22	0.210	-696.96710	-3.84880	-575.59949	717.95874	5.00151	-491.25327	-768.23608	4.69291	643.00421	802.03741	11.79194	646.91785	12.67814	623.32672	-982.64441	
23	0.220	-696.94867	-3.79724	-575.61005	717.99902	5.12107	-491.25909	-768.15857	4.60468	643.01984	801.97668	11.75065	646.93103	12.73019	623.34985	-982.58148	
24	0.230	-696.95972	-3.80979	-575.56720	718.02716	5.19639	-491.24161	-768.10754	4.62464	643.08685	801.96545	11.71722	646.92126	12.79861	623.34479	-982.48431	
25	0.240	-696.98010	-3.76106	-575.57849	717.98187	5.22377	-491.20340	-768.13690	4.64384	643.05420	801.91882	11.69470	646.92603	12.77885	623.38489	-982.42224	
26	0.250	-696.98718	-3.78127	-575.58282	718.00604	5.15476	-491.24628	-768.16382	4.68431	643.02753	801.98187	11.69230	646.92090	12.78904	623.40900	-982.38123	
27	0.260	-696.97827	-3.82903	-575.58716	718.00598	5.14639	-491.22467	-768.18396	4.66684	642.97699	801.94922	11.70513	646.92194	12.75597	623.38086	-982.34802	
28	0.270	-696.96338	-3.83519	-575.60791	717.97223	5.05648	-491.25745	-768.22607	4.68756	643.02399	801.98206	11.74312	646.90619	12.74059	623.33722	-982.41272	
29	0.280	-696.97852	-3.85632	-575.59375	717.98206	5.10426	-491.29028	-768.11334	4.63899	643.00403	801.99817	11.73497	646.89417	12.82570	623.30988	-982.47083	
30	0.290	-696.96356	-3.83146	-575.60706	717.99963	5.17411	-491.24042	-768.22253	4.56124	642.93707	801.99579	11.71901	646.91687	12.86250	623.30487	-982.56329	
31	0.300	-696.97589	-3.83017	-575.60077	717.96082	5.17893	-491.23340	-768.07758	4.67910	642.99347	801.98401	11.73529	646.91437	12.87401	623.29089	-982.64203	
32	0.310	-696.85168	-3.88667	-575.67352	717.97321	5.12197	-491.25555	-768.12976	4.64457	643.01813	802.01300	11.69428	646.87073	12.74283	623.29059	-982.78900	
33	0.320	-696.89832	-3.85199	-575.70325	717.97687	5.09465	-491.29733	-768.17987	4.59245	642.99402	801.94043	11.69150	646.90948	12.65982	623.29016	-982.83313	
34	0.330	-696.94543	-3.75153	-575.68378	717.95880	5.05739	-491.29517	-767.57507	3.65417	643.12787	801.96973	11.71844	646.91302	12.68145	623.30530	-982.82184	
35	0.340	-696.95435	-3.73560	-575.67468	717.95630	5.10296	-491.32083	-767.87689	4.23402	643.11371	801.97003	11.67449	646.90594	12.72389	623.32355	-982.73877	
36	0.350	-696.92944	-3.72619	-575.67108	718.01337	5.19867	-491.22244	-767.80719	4.07675	643.06659	801.94574	11.65595	646.92139	12.79633	623.35321	-982.64813	
37	0.360	-696.96149	-3.73532	-575.66846	717.97925	5.18650	-491.24722	-767.90076	4.21173	643.04932	801.96600	11.70967	646.90625	12.82165	623.34625	-982.53986	
38	0.370	-696.94830	-3.81380	-575.68787	717.99066	5.12044	-491.28378	-767.90820	4.10807	643.05725	802.02838	11.72099	646.90753	12.79204	623.33984	-982.41010	
39	0.380	-696.96906	-3.77829	-575.66357	717.94189	5.03862	-491.24991	-767.92749	4.15718	643.05914	802.01520	11.72903	646.88904	12.73697	623.29388	-982.31598	
40	0.390	-696.93500	-3.81202	-575.67017	717.97595	5.07894	-491.25961	-767.86987	4.13018	643.06415	802.00568	11.68602	646.90186	12.81006	623.30682	-982.30261	
41	0.400	-696.97186	-3.75885	-575.71112	717.96423	5.13000	-491.29700	-767.87323	4.15417	643.08582	801.97504	11.71368	646.90369	12.75542	623.35162	-982.35242	
42	0.410	-696.96570	-3.73878	-575.67609	717.99316	5.16807	-491.26962	-768.24017	4.56624	642.92725	801.94135	11.66583	646.92175	12.76414	623.36371	-982.44525	
43	0.420	-696.97382	-3.71099	-575.69360	718.00275	5.13019	-491.27667	-767.84912	4.11890	643.03577	802.07495	11.47465	646.76709	12.72172	623.36804	-982.59790	
44	0.430	-696.97015	-3.76316	-575.65259	718.00537	5.12746	-491.27844	-767.90961	4.10826	643.06354	801.96497	11.64105	646.91412	12.71663	623.35303	-982.71594	
45	0.440	-696.94562	-3.75227	-575.66766	717.98102	5.08636	-491.28098	-767.86890	4.07438	643.06146	802.06317	11.44623	646.77130	12.68449	623.30298	-982.80176	
46	0.450	-696.99670	-3.76904	-575.65808	717.94611	5.12134	-491.31100	-767.83240	4.09370	643.10413	801.97076	11.65231	646.92810	12.67321	623.29218	-982.82336	
47	0.460	-696.96790	-3.74761	-575.68146	717.98248	5.15138	-491.30411	-767.84210	4.11588	643.10052	801.97076	11.61043	646.89697	12.76149	623.27496	-982.78851	
48	0.470	-696.95209	-3.81969	-575.70923	717.99280	5.15575	-491.20050	-767.85229	4.16498	643.07336	801.95422	11.66861	646.90515	12.74203	623.30579	-982.74268	
49	0.480	-696.93524	-3.81933	-575.68530	717.97736	5.13862	-491.26141	-767.87201	4.17277	643.05066	802.02374	11.70863	646.91766	12.83067	623.29248	-982.62372	
50	0.490	-696.94537	-3.79116	-575.67072	717.96655	5.06508	-491.25748	-767.89960	4.18660	643.05713	801.97333	11.71670	646.90271	12.82325	623.29962	-982.56244	
51	0.500	-696.94244	-3.77816	-575.67291	717.99500	5.07338	-491.25751	-767.91760	4.14470	643.03363	801.96021	11.65946	646.90637	12.76344	623.32916	-982.49951	
52	0.510	-696.98254	-3.73394	-575.70117	717.96405	5.11535	-491.31271	-768.03680	4.11042	642.99329	801.97644	11.67985	646.92780	12.80032	623.34686	-982.44128	
53	0.520	-696.92694	-3.80607	-575.67847	717.99829	5.14917	-491.23572	-767.78796	4.09196	643.04883	801.97760	11.65643	646.89410	12.77143	623.37219	-982.46307	
54	0.530	-696.95654	-3.74642	-575.65326	718.02362	5.16755	-491.27820	-767.85602	4.10693	643.05286	801.98175	11.68920	646.89172	12.78798	623.37372	-982.49457	
55	0.540	-696.91241	-3.76017	-575.64423	717.97668	5.08477	-491.28210	-767.85150	4.10843	643.06537	802.03510	11.70612	646.90454	12.79800	623.37122	-982.52081	
56	0.550	-696.94165	-3.79660	-575.66595	717.93079	5.07440	-491.31763	-767.94116	4.17976	643.08240	801.98584	11.68719	646.92493	12.78458	623.34021	-982.55414	
57	0.560	-696.94696	-3.79625	-575.65356	717.99945	5.11077	-491.30154	-767.94666	4.15455	643.08557	801.94067	11.67494	646.91003	12.76928	623.29736	-982.64600	
58	0.570	-696.97491	-3.71780	-575.70941	717.98712	5.13283	-491.28741	-767.88959	4.15842	643.04718	801.93457	11.69106	646.89252	12.72313	623.32495	-982.69446	
59	0.580	-696.96899	-3.75471	-575.67047	717.98096	5.16608	-491.28439	-767.85303	4.23051	643.06622	801.90887	11.72477	646.90112	12.79456	623.29431	-982.70654	
60	0.590	-696.94965	-3.76745	-575.67023	717.97968	5.13185	-491.28442	-767.86877	4.21190	643.01648	801.92896	11.75735	646.90021	12.79900	623.27930	-982.71802	
61	0.600	-696.94489	-3.78781	-575.67383	717.95172	5.13863	-491.33438	-767.85693	4.22073	643.06494	802.02344	11.78533	646.90405	12.77143	623.29669	-982.70654	
62	0.610	-696.90857	-3.80055	-575.66602	717.99042	5.13724	-491.28256	-767.88080	4.22929	643.05011	801.98865	11.73407	646.89655	12.78350	623.29639	-982.69360	
63	0.620	-696.93408	-3.73341	-575.68091	717.96936	5.14667	-491.25211	-767.89160	4.23152	643.09845	801.98041	11.73224	646.92035	12.77498	623.32037	-982.64331	
